<?xml version="1.0" encoding="UTF-8"?>
<svg width="336px" height="720px" viewBox="0 0 336 720" version="1.1" xmlns="http://www.w3.org/2000/svg" xmlns:xlink="http://www.w3.org/1999/xlink">
    <title>Path 2</title>
    <g id="Page-1" stroke="none" stroke-width="1" fill="none" fill-rule="evenodd" stroke-linejoin="bevel">
        <path d="M194.19043,719.916504 C194.19043,30.3798828 187.443069,17.7346021 201.623047,30.3798828 C223.12383,49.553639 259.78851,-8.10408646 180.535156,42.0966797 C152.788102,59.672256 172.82159,41.4045278 155.335937,58.8896484 C136.738161,77.4868589 117.407583,95.3790737 99.5429687,114.681641 C95.1732571,119.403078 93.3866997,126.191093 88.8378906,130.740234 C84.2894646,135.288992 77.7907926,137.409986 72.78125,141.445312 C68.5718183,144.836127 65.4572987,149.439279 61.3144531,152.911133 C-25.2763822,225.47738 57.3002558,155.524582 43.765625,166.257812 C2.76145822,198.774931 90.0071208,123.061123 46.8242188,166.257812 C46.1034164,166.978845 44.2571089,167.151058 43.765625,166.257812 C43.3172293,165.442878 45.0676841,164.928755 45.7382813,164.28418 L48.7734375,164.28418 C74.3332956,139.716154 97.6472493,112.815349 123.980469,89.078125 C133.377681,80.607314 145.714011,75.9684656 155.560547,68.0244141 C212.907202,21.7579119 156.414032,52.4477983 189.941406,45.1240234 C190.918737,44.9105336 196.641463,34.3996649 198.5625,33.4394531 C199.475037,32.9833302 200.677917,33.8235118 201.623047,33.4394531 L201.623047,30.3798828 C203.948175,29.4350543 207.284824,28.7031918 209.152344,30.3798828 C214.995135,35.6256394 217.363893,43.9445841 222.916016,49.4970703 C227.464459,54.0458113 234.288867,55.7928975 238.972656,60.2021484 C256.554947,76.7538595 273.150569,94.3211363 290.068993,111.557117 C298.002279,119.639309 306.006542,127.648656 314.216797,135.446289 C316.488912,137.604215 320.173758,137.698325 322.625,139.650391" id="Path-2" stroke="#A7CF1D" stroke-width="41"></path>
    </g>
</svg>