<?xml version="1.0" encoding="UTF-8"?>
<svg width="488px" height="431px" viewBox="0 0 488 431" version="1.1" xmlns="http://www.w3.org/2000/svg" xmlns:xlink="http://www.w3.org/1999/xlink">
    <title>Path 2</title>
    <g id="Page-1" stroke="none" stroke-width="1" fill="none" fill-rule="evenodd">
        <path d="M386.26375,32.9022664 C366.676104,32.9022664 347.078078,33.4984782 327.500813,32.9022664 C307.940538,32.3065721 274.425094,18.4832399 262.379628,15.2108568 C234.825965,7.72537289 172.950655,4.31539846 148.51461,6.21704781 C126.490673,7.93098338 78.5780343,13.7921154 50.3283182,23.9847201 C48.5177836,24.6379678 46.968056,25.8911692 45.6451205,27.2188014 C35.6170071,37.282516 36.394741,50.3389026 31.774157,63.7610239 C19.1150755,100.533806 12.5433285,98.8685107 9.46208412,148.103852 C5.59779976,209.851423 -2.6892813,276.008615 27.9631138,332.690027 C40.5877763,356.035142 24.9769326,323.729244 49.1639403,360.403948 C53.9133173,367.605417 56.308514,375.992703 60.8186272,383.327429 C76.1594578,408.275981 100.609926,414.067881 129.62049,418.143221 C194.548347,427.264144 262.886683,429.004953 327.906102,418.478541 C339.33157,416.628798 349.607073,410.806175 360.642744,407.478022 C369.675211,404.753999 379.423092,403.991038 388.070456,400.334093 C396.640095,396.710018 403.456357,390.153231 411.68431,385.892694 C421.200001,380.965351 431.506784,377.491208 441.177231,372.834744 C443.780831,371.581072 446.91923,370.544596 448.430329,368.198941 C460.050534,350.161086 455.020427,344.504712 459.645127,323.390564 C465.663196,295.914965 475.84273,269.205034 479.954212,241.423846 C489.888568,174.297621 471.119515,80.6761082 409.704603,36.5959114 L386.26375,32.9022664 Z" id="Path-2" stroke="#B7DD38" stroke-width="10"></path>
    </g>
</svg>