<?xml version="1.0" encoding="UTF-8"?>
<svg width="20px" height="20px" viewBox="0 0 20 20" version="1.1" xmlns="http://www.w3.org/2000/svg" xmlns:xlink="http://www.w3.org/1999/xlink">
    <title>Comment</title>
    <g id="Page-1" stroke="none" stroke-width="1" fill="none" fill-rule="evenodd">
        <g id="Artboard" transform="translate(-149.000000, -68.000000)" fill="#6AB1E1">
            <g id="Comment" transform="translate(149.000000, 68.000000)">
                <path d="M0.37546,3.66957 C0.66565,1.98488 2.00472,0.74648 3.69477,0.48932 C5.31411,0.24293 7.53559,0 10,0 C12.4644,0 14.6859,0.24293 16.3052,0.48932 C17.9953,0.74648 19.3344,1.98488 19.6245,3.66957 C19.8268,4.84372 20,6.33525 20,8 C20,9.6647 19.8268,11.1563 19.6245,12.3304 C19.3344,14.0151 17.9953,15.2535 16.3052,15.5107 C14.8238,15.7361 12.8384,15.9586 10.6241,15.9949 L4.50873,19.6085 C3.84211,20.0024 3,19.5219 3,18.7476 L3,15.344 C1.64656,14.8939 0.62456,13.7766 0.37546,12.3304 C0.17321,11.1563 0,9.6647 0,8 C0,6.33525 0.17321,4.84372 0.37546,3.66957 Z M4,6 C4,5.44772 4.44772,5 5,5 L15,5 C15.5523,5 16,5.44772 16,6 C16,6.55228 15.5523,7 15,7 L5,7 C4.44771,7 4,6.55228 4,6 Z M4,10 C4,9.4477 4.44772,9 5,9 L9,9 C9.5523,9 10,9.4477 10,10 C10,10.5523 9.5523,11 9,11 L5,11 C4.44772,11 4,10.5523 4,10 Z" id="Shape"></path>
            </g>
        </g>
    </g>
</svg>