<?xml version="1.0" encoding="UTF-8"?>
<svg width="24px" height="24px" viewBox="0 0 24 24" version="1.1" xmlns="http://www.w3.org/2000/svg" xmlns:xlink="http://www.w3.org/1999/xlink">
    <title>Completed</title>
    <g id="Page-1" stroke="none" stroke-width="1" fill="none" fill-rule="evenodd">
        <g id="Completed" fill="#A7CE1F" fill-rule="nonzero">
            <path d="M12,0 C5.373,0 0,5.373 0,12 C0,18.628 5.373,24 12,24 C18.627,24 24,18.628 24,12 C24,5.373 18.627,0 12,0 Z M19.0729204,8.75180135 L9.66901287,18.1557089 C9.47671733,18.349097 9.16423707,18.349097 8.97303412,18.1557089 L7.58326179,16.7517329 C7.39205884,16.5594374 7.078486,16.244772 6.88837563,16.0502912 L3.65431424,12.6501564 C3.55925906,12.5551012 3.509,12.4207129 3.509,12.2928801 C3.509,12.1672324 3.55925906,12.0448625 3.65431424,11.9498073 L5.07140128,10.6725716 C5.16754905,10.5742386 5.29538188,10.5261648 5.42212212,10.5261648 C5.54667719,10.5272573 5.67123226,10.5764238 5.76628744,10.6725716 L8.97412671,13.9448736 C9.16532966,14.1393543 9.47780992,14.1393543 9.67010546,13.9448736 L16.9893545,6.6452911 C17.1816501,6.45190297 17.4930377,6.45190297 17.6842407,6.6452911 L19.074013,8.04926707 C19.265216,8.24156261 19.265216,8.55841322 19.0729204,8.75180135 Z" id="svg_3"></path>
        </g>
    </g>
</svg>