<?xml version="1.0" encoding="UTF-8"?>
<svg width="24px" height="24px" viewBox="0 0 24 24" version="1.1" xmlns="http://www.w3.org/2000/svg" xmlns:xlink="http://www.w3.org/1999/xlink">
    <title>Deleted</title>
    <g id="Page-1" stroke="none" stroke-width="1" fill="none" fill-rule="evenodd">
        <g id="Deleted" fill="#F0856D" fill-rule="nonzero">
            <path d="M12,5.75506309e-12 C5.373,5.75506309e-12 0,5.373 0,12 C0,18.628 5.373,24 12,24 C18.627,24 24,18.628 24,12 C24,5.373 18.627,5.75506309e-12 12,5.75506309e-12 Z M17.8684108,7.43951065 C18.047216,7.61831587 18.047216,7.91137363 17.8684108,8.09017885 L14.2831661,11.6719959 C14.1043609,11.8502299 14.1043609,12.1438589 14.2831661,12.3232354 L17.866697,15.9061949 C18.0455022,16.0850002 18.0455022,16.3780579 17.866697,16.5574344 L16.5613617,17.8581995 C16.3819853,18.0364335 16.0883562,18.0364335 15.9089798,17.8581995 L12.3265914,14.2758112 C12.1477862,14.097006 11.8535859,14.097006 11.6747807,14.2758112 L8.08953609,17.8559145 C7.91073087,18.0347197 7.61653059,18.0347197 7.43772537,17.8559145 L6.13410392,16.5534356 C5.95529869,16.3746303 5.95529869,16.0815726 6.13410392,15.9021961 L9.72049106,12.3209503 C9.89929628,12.1427163 9.89929628,11.8490873 9.72049106,11.6697108 L6.13696023,8.08618001 C5.95758375,7.90737479 5.95758375,7.61374577 6.13696023,7.43494055 L7.44172421,6.13360415 C7.62167195,5.95537019 7.91472971,5.95537019 8.09410619,6.13417541 L11.6759232,9.71599246 C11.8552997,9.89536894 12.1489287,9.89536894 12.327734,9.71656372 L15.9129786,6.13646046 C16.0912125,5.9582265 16.3848416,5.9582265 16.5647893,6.13646046 L17.8684108,7.43951065 Z" id="svg_3"></path>
        </g>
    </g>
</svg>