<?xml version="1.0" encoding="UTF-8"?>
<svg width="21px" height="20px" viewBox="0 0 21 20" version="1.1" xmlns="http://www.w3.org/2000/svg" xmlns:xlink="http://www.w3.org/1999/xlink">
    <title>Forward</title>
    <g id="Page-1" stroke="none" stroke-width="1" fill="none" fill-rule="evenodd" opacity="0.3">
        <g id="Forward" transform="translate(10.500000, 10.000000) rotate(-180.000000) translate(-10.500000, -10.000000) translate(0.000000, 0.000000)" fill="#FFFFFF" fill-rule="nonzero">
            <g id="Layer_2">
                <path d="M11,20.0000167 C10.734197,20.0015368 10.4787188,19.8971865 10.29,19.71 L1.29,10.71 C1.10068735,10.5222334 0.994201676,10.2666375 0.994201676,10 C0.994201676,9.73336246 1.10068735,9.4777666 1.29,9.29 L10.29,0.29 C10.5436586,0.0363414186 10.913374,-0.0627235389 11.259878,0.0301219396 C11.6063821,0.122967418 11.8770326,0.393617895 11.9698781,0.740121952 C12.0627235,1.08662601 11.9636586,1.45634143 11.71,1.71 L3.41,10 L11.71,18.29 C11.8993127,18.4777666 12.0057983,18.7333625 12.0057983,19 C12.0057983,19.2666375 11.8993127,19.5222334 11.71,19.71 C11.5212812,19.8971865 11.265803,20.0015368 11,20.0000167 Z" id="Path"></path>
                <path d="M20.2692308,11 L2.73076923,11 C2.32717653,11 2,10.5522847 2,10 C2,9.44771525 2.32717653,9 2.73076923,9 L20.2692308,9 C20.6728235,9 21,9.44771525 21,10 C21,10.5522847 20.6728235,11 20.2692308,11 Z" id="Path"></path>
            </g>
        </g>
    </g>
</svg>