<?xml version="1.0" encoding="UTF-8"?>
<svg width="34px" height="33px" viewBox="0 0 34 33" version="1.1" xmlns="http://www.w3.org/2000/svg" xmlns:xlink="http://www.w3.org/1999/xlink">
    <title>5fb9a8e88fe3b290632277bf_link 2</title>
    <g id="Page-1" stroke="none" stroke-width="1" fill="none" fill-rule="evenodd">
        <g id="5fb9a8e88fe3b290632277bf_link-2" fill="#A7CF1D" fill-rule="nonzero">
            <g id="5fb9a8e88fe3b290632277bf_link">
                <path d="M14.2,25.7 C12.5,27.4 9.8,27.5 8.2,25.8 L8,25.7 C6.4,24.1 6.4,21.4 8.1,19.7 L10.3,17.5 C11.4,16.4 12.9,16 14.3,16.3 C14.9,16.4 15.7,16.1 16.3,15.5 L17.7,14.1 C18.7,13.1 18.8,11.7 17.8,11.2 C14.1,9.5 9.4,10.3 6.2,13.5 L4,15.7 C1.11022302e-16,19.7 -0.2,26.2 3.6,30 L3.7,30.1 C7.6,34 14,33.8 18,29.7 L19,28.7 C20.1,27.6 20,26.1 18.9,25.8 L16.2,24.9 C15.7,24.8 14.9,25.1 14.2,25.7 L14.2,25.7 Z" id="Path"></path>
                <path d="M16.2,4 L15.2,5 C14.1,6.1 14.2,7.6 15.3,7.9 L18.1,8.7 C18.8,8.9 19.6,8.6 20.2,8 L20.2,8 C21.9,6.3 24.6,6.2 26.2,7.9 L26.3,8 C27.9,9.6 27.9,12.3 26.2,14 L24,16.2 C22.9,17.3 21.4,17.7 20,17.4 C19.4,17.3 18.6,17.6 18,18.2 L16.6,19.6 C15.6,20.6 15.5,22 16.5,22.5 C20.2,24.2 24.9,23.4 28.1,20.2 L30.3,18 C34.3,14 34.5,7.5 30.7,3.7 L30.6,3.6 C26.7,-0.2 20.3,0 16.2,4 Z" id="Path"></path>
            </g>
        </g>
    </g>
</svg>