<?xml version="1.0" encoding="UTF-8"?>
<svg width="102px" height="102px" viewBox="0 0 102 102" version="1.1" xmlns="http://www.w3.org/2000/svg" xmlns:xlink="http://www.w3.org/1999/xlink">
    <title>Green Undo</title>
    <g id="Page-1" stroke="none" stroke-width="1" fill="none" fill-rule="evenodd">
        <g id="Green-Undo" transform="translate(2.000000, 2.000000)" fill="#A7CF1D" fill-rule="nonzero">
            <polygon id="Path" stroke="#A7CF1D" stroke-width="3" stroke-linejoin="round" points="35.5932203 49.1525424 0 24.5762712 35.5932203 0"></polygon>
            <path d="M57.5113306,15.2542373 C81.0279069,15.2542373 100,34.1746286 100,57.6271186 C100,80.6531998 81.7115294,99.3104876 58.7894593,99.9813225 L57.5113306,100 L13.3871645,100 C7.86578939,100 3.38983051,95.5362388 3.38983051,90.0299103 C3.38983051,84.7738694 7.46813188,80.4677711 12.6410517,80.0871672 L13.3871645,80.0598205 L57.5113306,80.0598205 C69.9851567,80.0598205 80.0053321,70.0669516 80.0053321,57.6271186 C80.0053321,45.5427094 70.5495584,35.7674354 58.5743303,35.2187131 L57.5113306,35.1944167 L20.0213282,35.1944167 C14.4999532,35.1944167 10.0239943,30.7306555 10.0239943,25.224327 C10.0239943,19.9682862 14.1022956,15.6621878 19.2752155,15.2815839 L20.0213282,15.2542373 L57.5113306,15.2542373 Z" id="Path"></path>
        </g>
    </g>
</svg>