<?xml version="1.0" encoding="UTF-8"?>
<svg width="22px" height="20px" viewBox="0 0 22 20" version="1.1" xmlns="http://www.w3.org/2000/svg" xmlns:xlink="http://www.w3.org/1999/xlink">
    <title>Home</title>
    <g id="Page-1" stroke="none" stroke-width="1" fill="none" fill-rule="evenodd">
        <g id="Home" fill="#A7CF1D" fill-rule="nonzero">
            <path d="M19,16.8 L19,6.96614 L20.4855,7.85746 C20.9591,8.1416 21.5734,7.98805 21.8575,7.51447 C22.1417,7.04089 21.9881,6.42663 21.5145,6.14248 L16.4926,3.12932 L12.6514,0.81504 L12.6513,0.81497 C12.3721,0.64675 12.1578,0.51764 11.9762,0.42057 C11.9338,0.39686 11.8908,0.3748 11.8472,0.35441 C11.696,0.28065 11.565,0.23155 11.4304,0.20189 C11.1469,0.13941 10.8531,0.13941 10.5696,0.20189 C10.4346,0.23163 10.3033,0.28091 10.1516,0.35499 C10.1088,0.37505 10.0666,0.39671 10.0249,0.41996 C9.8431,0.51711 9.6285,0.6464 9.3487,0.81498 L9.3486,0.81501 L5.50169,3.13278 L0.48553,6.14248 C0.01195,6.42663 -0.141612,7.04089 0.14254,7.51447 C0.42668,7.98805 1.04094,8.1416 1.51452,7.85746 L3,6.96618 L3,16.8 C3,17.9202 3,18.4802 3.21799,18.908 C3.40973,19.2844 3.71569,19.5903 4.09202,19.7821 C4.51984,20 5.0799,20 6.2,20 L8,20 L8,14 C8,12.3431 9.3431,11 11,11 C12.6569,11 14,12.3431 14,14 L14,20 L15.8,20 C16.9201,20 17.4802,20 17.908,19.7821 C18.2843,19.5903 18.5903,19.2844 18.782,18.908 C19,18.4802 19,17.9202 19,16.8 Z" id="Path"></path>
        </g>
    </g>
</svg>