<svg width="32" height="32" xmlns="http://www.w3.org/2000/svg">

 <g>
  <title>background</title>
  <rect fill="none" id="canvas_background" height="402" width="582" y="-1" x="-1"/>
 </g>
 <g>
  <title>Layer 1</title>
  <path fill="#ffffff" id="XMLID_273_" d="m27.559058,18.036l-0.526,-0.304c-0.626,-0.361 -1,-1.009 -1,-1.732s0.374,-1.371 1,-1.732l0.526,-0.304c1.436,-0.83 1.927,-2.662 1.098,-4.098l-1,-1.732c-0.827,-1.433 -2.666,-1.925 -4.098,-1.098l-0.526,0.303c-0.626,0.362 -1.375,0.362 -2,0c-0.626,-0.362 -1,-1.009 -1,-1.732l0,-0.607c0,-1.654 -1.346,-3 -3,-3l-2,0c-1.654,0 -3,1.346 -3,3l0,0.608c0,0.723 -0.374,1.37 -1,1.732c-0.626,0.361 -1.374,0.362 -2,0l-0.526,-0.304c-1.432,-0.827 -3.271,-0.335 -4.099,1.098l-1,1.732c-0.829,1.436 -0.338,3.269 1.098,4.098l0.527,0.304c0.626,0.361 1,1.009 1,1.732s-0.374,1.371 -1,1.732l-0.526,0.304c-1.436,0.829 -1.927,2.662 -1.098,4.098l1,1.732c0.828,1.433 2.667,1.925 4.098,1.098l0.526,-0.303c0.626,-0.363 1.374,-0.361 2,0c0.626,0.362 1,1.009 1,1.732l0,0.607c0,1.654 1.346,3 3,3l2,0c1.654,0 3,-1.346 3,-3l0,-0.608c0,-0.723 0.374,-1.37 1,-1.732c0.625,-0.361 1.374,-0.362 2,0l0.526,0.304c1.432,0.826 3.271,0.334 4.098,-1.098l1,-1.732c0.829,-1.436 0.338,-3.269 -1.098,-4.098zm-11.526,2.964c-2.757,0 -5,-2.243 -5,-5s2.243,-5 5,-5s5,2.243 5,5s-2.243,5 -5,5z"/>
 </g>
</svg>