<?xml version="1.0" encoding="UTF-8"?>
<svg width="231px" height="361px" viewBox="0 0 231 361" version="1.1" xmlns="http://www.w3.org/2000/svg" xmlns:xlink="http://www.w3.org/1999/xlink">
    <title>iconfinder_pear_2564980</title>
    <g id="Page-1" stroke="none" stroke-width="1" fill="none" fill-rule="evenodd">
        <g id="iconfinder_pear_2564980" fill-rule="nonzero">
            <path d="M107.75,81 C102.8,81 99.5,77.7 99.5,72.75 C99.5,49.65 81.35,31.5 58.25,31.5 C53.3,31.5 50,28.2 50,23.25 C50,18.3 53.3,15 58.25,15 C90.425,15 116,40.575 116,72.75 C116,77.7 112.7,81 107.75,81 Z" id="Path" fill="#404C14"></path>
            <path d="M114,66 C127.866667,66 140.866667,60.8 151.266667,51.2666667 C160.8,40.8666667 166,27.8666667 166,14 C166,14 165.133333,14 165.133333,14 C152.133333,14 139.133333,19.2 128.733333,28.7333333 C119.2,39.1333333 114,52.1333333 114,66 Z" id="Path" fill="#90C962"></path>
            <path d="M115.819672,56.6949153 C128.114754,56.6949153 140.409836,51.7118644 150.245902,42.5762712 C157.622951,35.1016949 162.540984,25.9661017 164.180328,16 C164.180328,16 165,16 165,16 C165,29.2881356 160.081967,41.7457627 151.065574,51.7118644 C140.409836,60.0169492 128.114754,65 115,65 C115,62.5084746 115,59.1864407 115.819672,56.6949153 Z" id="Path" fill="#71B956"></path>
            <path d="M175.221634,129.09375 C174.374519,102.09375 150.655288,81 121.853365,81 L109.146635,81 C81.1918273,81 57.4725968,102.9375 55.778366,129.09375 C55.778366,129.09375 55.778366,129.9375 55.778366,129.9375 C54.9312506,157.78125 46.4600969,182.25 32.0591355,202.5 C19.3524048,219.375 12.5754818,239.625 13.4225972,261.5625 C15.9639433,310.5 59.1668275,351 110.840865,351 L121.853365,351 C173.527403,351 216.730287,310.5 217.577403,261.5625 C218.424518,240.46875 211.647595,220.21875 198.940865,202.5 C184.539903,183.09375 176.068749,157.78125 175.221634,129.09375 C175.221634,129.9375 175.221634,129.9375 175.221634,129.09375 L175.221634,129.09375 Z" id="Path" fill="#BADB49"></path>
            <path d="M120.018936,361 L109.337814,361 C51.0024584,361 1.70497441,314.983287 0.0617249452,257.462396 C-0.759899788,232.810585 6.63472281,209.802228 21.423968,190.08078 C33.748339,173.64624 40.3213369,152.281337 41.1429616,129.272981 L41.1429616,128.451253 C42.7862111,93.9387187 73.1863262,66 109.337814,66 L121.662186,66 C157.813674,66 188.213789,93.9387187 189.857038,129.272981 L189.857038,130.094708 C189.857038,130.094708 189.857038,130.094708 189.857038,130.094708 L189.857038,130.094708 C190.678663,153.924791 197.251661,174.467967 209.576032,190.902507 C224.365277,210.623955 231.7599,233.632312 230.938275,258.284123 C228.473401,314.983287 179.175917,361 120.018936,361 Z M109.337814,81.6128134 C82.2241983,81.6128134 59.2187058,102.977716 57.5754563,128.451253 C57.5754563,128.451253 57.5754563,129.272981 57.5754563,129.272981 C56.7538316,156.389972 48.5375842,180.220056 34.5699638,199.941504 C22.2455927,216.376045 15.6725949,236.097493 16.4942196,257.462396 C18.1374691,305.122563 60.0403305,344.56546 110.159439,344.56546 L120.840561,344.56546 C170.95967,344.56546 212.862531,305.122563 213.684156,257.462396 C214.50578,236.91922 207.932783,217.197772 195.608412,199.941504 C180.819166,181.041783 173.424544,156.389972 172.602919,129.272981 C172.602919,129.272981 172.602919,129.272981 172.602919,129.272981 L172.602919,128.451253 C171.781294,102.155989 148.775802,81.6128134 120.840561,81.6128134 L109.337814,81.6128134 Z" id="Shape" fill="#404C14"></path>
            <path d="M196.484683,199.993711 C181.685139,181.044025 174.285367,156.327044 173.46317,129.138365 C173.46317,129.138365 173.46317,129.138365 173.46317,129.138365 L173.46317,128.314465 C172.640973,106.893082 157.019232,88.7672956 136.46431,83 C147.975066,92.0628931 156.197035,105.245283 157.019232,120.075472 L157.019232,120.899371 C157.019232,120.899371 157.019232,120.899371 157.019232,120.899371 C157.841429,148.08805 161.130217,167.861635 175.107564,186.811321 C187.440517,203.289308 194.018092,223.062893 193.195895,244.484277 C191.551501,292.27044 154.552642,336.761006 104.398632,336.761006 L93.7100722,336.761006 C81.377119,336.761006 70.6885595,334.289308 60,330.169811 C74.7995439,339.232704 92.0656784,345 110.15401,345 L120.842569,345 C170.996579,345 212.92862,305.45283 213.750817,257.666667 C215.395211,236.245283 208.817636,216.471698 196.484683,199.993711 Z" id="Path" fill="#A4C438"></path>
            <path d="M44.6228548,238 C43.8036559,238 42.9844571,238 42.1652582,238 C38.069264,237.174351 34.7924686,232.220457 36.4308663,228.092212 C39.7076617,214.881828 46.2612525,201.671443 54.4532409,190.938006 C59.368434,184.332814 63.4644283,177.727622 65.9220248,169.471132 C67.5604225,165.342887 72.4756156,162.86594 76.5716098,164.517238 C80.667604,166.168536 83.1252006,171.12243 81.4868029,175.250675 C78.2100075,184.332814 73.2948144,192.589304 67.5604225,200.020145 C60.1876329,209.927934 55.2724398,219.835722 52.8148432,231.394808 C51.1764456,235.523053 47.8996502,238 44.6228548,238 Z" id="Path" fill="#DAFE61"></path>
            <circle id="Oval" fill="#DAFE61" cx="41" cy="254" r="8"></circle>
            <path d="M85.0612989,116.116667 C94.0304684,107.133333 99.7381217,94.0666667 98.9227427,81 C85.876678,81 73.6459923,85.9 63.8614438,94.8833333 C54.0768952,103.866667 50,116.933333 50,130 C63.0460647,130 75.2767504,125.1 85.0612989,116.116667 Z" id="Path" fill="#90C962"></path>
            <path d="M50.8196721,122.694915 C63.1147541,122.694915 75.4098361,117.711864 85.2459016,108.576271 C92.6229508,101.101695 97.5409836,91.9661017 99.1803279,82 C99.1803279,82 100,82 100,82 C100,95.2881356 95.0819672,107.745763 86.0655738,117.711864 C75.4098361,126.016949 63.1147541,131 50,131 C50,128.508475 50,125.186441 50.8196721,122.694915 Z" id="Path" fill="#71B956"></path>
            <path d="M50.1545313,147 C46.8779743,147 43.6014173,147 40.3248603,146.181896 C37.0483033,145.363793 33.7717463,142.909482 33.7717463,139.637067 C30.4951893,120.002579 37.8674425,98.7318839 51.7928098,84.8241216 C66.5373164,70.0982557 87.0157977,63.5534264 106.67514,66.825841 C109.951697,67.6439447 113.228254,70.0982557 113.228254,73.3706703 C116.504811,93.0051583 109.132557,114.275853 95.2071902,128.183616 L95.2071902,128.183616 C83.7392407,140.455171 66.5373164,147 50.1545313,147 Z M49.3353921,130.637927 C62.4416201,130.637927 74.7287089,125.729305 84.5583799,116.730164 L84.5583799,116.730164 C93.5689117,107.731024 99.3028864,94.6413656 98.4837472,81.551707 C85.3775192,81.551707 73.0904304,86.4603289 63.2607593,95.4594692 C53.4310883,104.45861 49.3353921,117.548268 49.3353921,130.637927 Z" id="Shape" fill="#404C14"></path>
            <path d="M116.154531,81 C112.877974,81 109.601417,81 106.32486,80.1813397 C103.048303,79.3626795 99.7717463,76.9066987 99.7717463,73.6320577 C96.4951893,53.9842116 103.867443,32.6990449 117.79281,18.7818206 C131.718177,4.86459626 153.015798,-2.50334604 172.67514,0.771294979 C175.951697,1.58995523 179.228254,4.045936 179.228254,7.32057702 C182.504811,26.9684231 175.132557,48.2535898 161.20719,62.1708141 L161.20719,62.1708141 C149.739241,74.450718 132.537316,81 116.154531,81 Z M115.335392,64.6267949 C128.44162,64.6267949 140.728709,59.7148334 150.55838,50.7095706 L150.55838,50.7095706 C159.568912,40.8856475 164.483747,28.6057437 164.483747,15.5071796 C164.483747,15.5071796 163.664608,15.5071796 163.664608,15.5071796 C151.377519,15.5071796 139.09043,20.4191411 129.260759,29.4244039 C120.250228,39.248327 115.335392,51.5282308 115.335392,64.6267949 Z" id="Shape" fill="#404C14"></path>
        </g>
    </g>
</svg>