<svg width="32" height="32" xmlns="http://www.w3.org/2000/svg">

 <g>
  <title>background</title>
  <rect fill="none" id="canvas_background" height="402" width="582" y="-1" x="-1"/>
 </g>
 <g>
  <title>Layer 1</title>
  <path fill="#a7cf1d" id="svg_2" d="m23,27.15917l0,0c-1.1,0 -2.1,-0.7 -2.5,-1.8c0,-0.1 0,-0.2 -0.1,-0.2l-8.9,0c0,0.1 0,0.2 -0.1,0.2c-0.3,1.1 -1.3,1.8 -2.4,1.8l0,0c-0.6,0 -1,0.4 -1,1s0.4,1 1,1l14,0c0.6,0 1,-0.4 1,-1s-0.4,-1 -1,-1z"/>
  <path fill="#a7cf1d" id="svg_3" d="m27,3.360356l-22,0c-1.7,0 -3,1.3 -3,3l0,15c0,1.7 1.3,3 3,3l6.9,0l8.1,0l7,0c1.7,0 3,-1.3 3,-3l0,-15c0,-1.7 -1.3,-3 -3,-3z"/>
 </g>
</svg>