<svg width="32" height="32" xmlns="http://www.w3.org/2000/svg">

 <g>
  <title>background</title>
  <rect fill="none" id="canvas_background" height="402" width="582" y="-1" x="-1"/>
 </g>
 <g>
  <title>Layer 1</title>
  <path fill="#a7cf1d" id="svg_2" d="m17,8l-11,0c-1.7,0 -3,1.3 -3,3l0,10c0,1.7 1.3,3 3,3l11,0c1.7,0 3,-1.3 3,-3l0,-10c0,-1.7 -1.3,-3 -3,-3z"/>
  <path fill="#a7cf1d" id="svg_3" d="m28.5,8.1c-0.3,-0.2 -0.7,-0.2 -1,0l-5,3c-0.3,0.2 -0.5,0.5 -0.5,0.9l0,8c0,0.4 0.2,0.7 0.5,0.9l5,3c0.1,0.1 0.3,0.1 0.5,0.1c0.2,0 0.3,0 0.5,-0.1c0.3,-0.2 0.5,-0.5 0.5,-0.9l0,-14c0,-0.4 -0.2,-0.7 -0.5,-0.9z"/>
 </g>
</svg>