<svg width="32" height="32" xmlns="http://www.w3.org/2000/svg">
 <title/>

 <g>
  <title>background</title>
  <rect fill="none" id="canvas_background" height="402" width="582" y="-1" x="-1"/>
 </g>
 <g>
  <title>Layer 1</title>
  <path fill="#a7cf1d" id="svg_1" d="m21,15l0,-0.58l-5.55,5.58a4.93,4.93 0 0 0 0.55,0a5,5 0 0 0 5,-5z"/>
  <path fill="#a7cf1d" id="svg_2" d="m24,15a1,1 0 0 0 -2,0a6,6 0 0 1 -6,6a5.92,5.92 0 0 1 -1.41,-0.17l-1.59,1.58a7.77,7.77 0 0 0 2,0.52l0,3.07l-3.5,0a1,1 0 0 0 0,2l9,0a1,1 0 0 0 0,-2l-3.5,0l0,-3.07a8,8 0 0 0 7,-7.93z"/>
  <path fill="#a7cf1d" id="svg_3" d="m27.71,4.29a1,1 0 0 0 -1.41,0l-5.3,5.3l0,-0.59a5,5 0 0 0 -10,0l0,6a5,5 0 0 0 1.27,3.32l-0.71,0.71a6,6 0 0 1 -1.56,-4.03a1,1 0 0 0 -2,0a7.92,7.92 0 0 0 2.16,5.43l-5.87,5.86a1,1 0 1 0 1.41,1.41l22,-22a1,1 0 0 0 0.01,-1.41z"/>
 </g>
</svg>