<svg width="100" height="100" xmlns="http://www.w3.org/2000/svg">

 <g>
  <title>background</title>
  <rect fill="none" id="canvas_background" height="402" width="582" y="-1" x="-1"/>
 </g>
 <g>
  <title>Layer 1</title>
  <path fill="#ffffff" id="svg_1" d="m39.806,73.038897l-8.915,0c-2.176,0 -3.94,-1.764 -3.94,-3.94l0,-37.799c0,-2.176 1.764,-3.94 3.94,-3.94l8.915,0c2.176,0 3.94,1.764 3.94,3.94l0,37.799c0,2.176 -1.764,3.94 -3.94,3.94z"/>
  <path fill="#ffffff" id="svg_2" d="m68.109,72.821l-8.915,0c-2.176,0 -3.94,-1.764 -3.94,-3.94l0,-37.799c0,-2.176 1.764,-3.94 3.94,-3.94l8.915,0c2.176,0 3.94,1.764 3.94,3.94l0,37.799c0,2.176 -1.764,3.94 -3.94,3.94z"/>
  <path fill="#ffffff" id="svg_3" d="m40.489,27.248c0.769,0.719 1.257,1.735 1.257,2.871l0,37.799c0,2.176 -1.764,3.94 -3.94,3.94l-8.915,0c-0.234,0 -0.46,-0.03 -0.683,-0.069c0.704,0.658 1.643,1.069 2.683,1.069l8.915,0c2.176,0 3.94,-1.764 3.94,-3.94l0,-37.799c0,-1.942 -1.408,-3.546 -3.257,-3.871z"/>
  <path fill="#ffffff" id="svg_4" d="m68.792,27.211c0.769,0.719 1.257,1.735 1.257,2.871l0,37.799c0,2.176 -1.764,3.94 -3.94,3.94l-8.915,0c-0.234,0 -0.46,-0.03 -0.683,-0.069c0.704,0.658 1.643,1.069 2.683,1.069l8.915,0c2.176,0 3.94,-1.764 3.94,-3.94l0,-37.799c0,-1.942 -1.408,-3.547 -3.257,-3.871z"/>
 </g>
</svg>