<svg width="96.00000000000001" height="96.00000000000001" xmlns="http://www.w3.org/2000/svg">
 <title/>

 <g>
  <title>background</title>
  <rect fill="none" id="canvas_background" height="402" width="582" y="-1" x="-1"/>
 </g>
 <g>
  <title>Layer 1</title>
  <path fill="#a7cf1d" id="svg_1" d="m78,6l-60,0a18.02,18.02 0 0 0 -18,18l0,48a18.02,18.02 0 0 0 18,18l60,0a18.02,18.02 0 0 0 18,-18l0,-48a18.02,18.02 0 0 0 -18,-18zm6,66a6.0116,6.0116 0 0 1 -6,6l-60,0a6.0116,6.0116 0 0 1 -6,-6l0,-36l72,0l0,36z"/>
 </g>
</svg>