<?xml version="1.0" encoding="UTF-8"?>
<svg width="487px" height="206px" viewBox="0 0 487 206" version="1.1" xmlns="http://www.w3.org/2000/svg" xmlns:xlink="http://www.w3.org/1999/xlink">
    <title>Path 2</title>
    <g id="Page-1" stroke="none" stroke-width="1" fill="none" fill-rule="evenodd">
        <path d="M385.798848,18.6300371 C366.211203,18.6300371 346.613177,18.9068497 327.035912,18.6300371 C307.475637,18.3534647 273.960193,11.9354891 261.914727,10.4161684 C234.361064,6.94076511 172.485754,5.3575627 148.049709,6.24047133 C126.025772,7.03622713 78.1131332,9.757467 49.863417,14.4897477 C48.0528825,14.7930413 46.5031549,15.3748849 45.1802193,15.9912855 C35.152106,20.6637244 35.9298398,26.7256182 31.3092558,32.9573174 C18.6501743,50.0303947 12.0784273,49.2572219 8.99718295,72.1164874 C5.13289859,100.785003 -3.15418247,131.500842 27.4982126,157.817212 C40.1228751,168.656015 24.5120314,153.656848 48.6990391,170.684389 C53.4484161,174.027929 55.8436128,177.922026 60.3537261,181.327434 C75.6945566,192.91069 100.145025,195.599787 129.155588,197.491909 C194.083445,201.726623 262.421782,202.534856 327.441201,197.647593 C338.866669,196.788784 349.142172,194.085423 360.177843,192.54021 C369.210309,191.275484 378.95819,190.921252 387.605555,189.223385 C396.175194,187.540779 402.991456,184.496556 411.219409,182.51845 C420.7351,180.230755 431.041882,178.61776 440.71233,176.45583 C443.31593,175.873768 446.454328,175.392547 447.965428,174.303493 C459.585633,165.928775 454.555526,163.302601 459.180226,153.499604 C465.198295,140.743076 475.377829,128.342036 479.489311,115.443628 C489.423667,84.2778804 470.654614,40.8107494 409.239702,20.3449437 L385.798848,18.6300371 Z" id="Path-2" stroke="#B7DD38" stroke-width="10"></path>
    </g>
</svg>