<?xml version="1.0" encoding="UTF-8"?>
<svg width="30px" height="32px" viewBox="0 0 30 32" version="1.1" xmlns="http://www.w3.org/2000/svg" xmlns:xlink="http://www.w3.org/1999/xlink">
    <title>Refresh</title>
    <g id="Page-1" stroke="none" stroke-width="1" fill="none" fill-rule="evenodd">
        <g id="Refresh" transform="translate(15.000000, 16.000000) scale(-1, 1) rotate(-30.000000) translate(-15.000000, -16.000000) translate(5.000000, 4.000000)" fill="#FFFFFF" fill-rule="nonzero">
            <path d="M17.0708,20.5186 C15.1216,22.4678 12.5605,23.4429 10,23.4429 C7.439,23.4429 4.8784,22.4683 2.9287,20.5186 C0.7685,18.3584 -0.2764,15.3765 0.062,12.337 C0.123,11.7882 0.623,11.3888 1.1665,11.4542 C1.7153,11.5152 2.1108,12.0094 2.0493,12.5587 C1.7788,14.9903 2.6147,17.3766 4.3428,19.1046 C7.4615,22.2233 12.5371,22.2242 15.6568,19.1046 C18.7759,15.985 18.7759,10.9098 15.6568,7.7906 C13.0181,5.1524 8.9297,4.7379 5.8399,6.6212 L9.1421,7.465 C9.6773,7.6017 10,8.1462 9.8633,8.6813 C9.7481,9.1334 9.3413,9.4337 8.895,9.4337 C8.8135,9.4342 8.73,9.4239 8.647,9.4024 L2.1978,7.7545 L3.8457,1.3048 C3.9819,0.77 4.5249,0.4438 5.062,0.5835 C5.5972,0.7202 5.9199,1.2647 5.7832,1.7998 L5.0234,4.7734 C8.8593,2.5761 13.8374,3.143 17.0708,6.3764 C20.9697,10.2749 20.9697,16.6191 17.0708,20.5186 Z" id="Path"></path>
        </g>
    </g>
</svg>