<?xml version="1.0" encoding="UTF-8"?>
<svg width="39px" height="34px" viewBox="0 0 39 34" version="1.1" xmlns="http://www.w3.org/2000/svg" xmlns:xlink="http://www.w3.org/1999/xlink">
    <title>Group 2</title>
    <g id="Page-1" stroke="none" stroke-width="1" fill="none" fill-rule="evenodd">
        <g id="Group-2" fill="#A7CF1D" fill-rule="nonzero">
            <path d="M31.2076579,3.55271368e-15 L7.20176721,3.55271368e-15 C3.22616912,0.00440998532 0.00440998532,3.22616912 9.9475983e-14,7.20176721 L9.9475983e-14,26.4064798 C0.00440998532,30.3820779 3.22616912,33.603837 7.20176721,33.608247 L31.2076579,33.608247 C35.183256,33.603837 38.4050152,30.3820779 38.4094251,26.4064798 L38.4094251,7.20176721 C38.4050152,3.22616912 35.183256,0.00440998532 31.2076579,3.55271368e-15 Z M33.608247,26.4064798 C33.6056932,27.7312293 32.5324074,28.8045151 31.2076579,28.8070689 L7.20176721,28.8070689 C5.87701773,28.8045151 4.80373193,27.7312293 4.80117814,26.4064798 L4.80117814,12.0029454 L33.608247,12.0029454 L33.608247,26.4064798 L33.608247,26.4064798 Z" id="svg_1"></path>
            <g id="iconfinder_arrow-up-01_186407" transform="translate(19.125000, 20.500000) rotate(-180.000000) translate(-19.125000, -20.500000) translate(11.625000, 16.000000)">
                <path d="M8.4331437,0.393324281 L14.2265344,6.18671497 C14.7578219,6.71800245 14.7578219,7.58716216 14.2265344,8.1178452 L13.7429963,8.60198771 C13.2129177,9.13267076 12.3431536,9.13267076 11.8124705,8.60198771 L7.39111913,4.18063634 L2.96976775,8.60198771 C2.43908471,9.13267076 1.56932057,9.13267076 1.03924195,8.60198771 L0.55570386,8.1178452 C0.0244163885,7.58716216 0.0244163885,6.71800245 0.55570386,6.18671497 L6.3503034,0.393324281 C6.63498645,0.10803681 7.01698153,-0.0188919372 7.39172355,0.00226285403 C7.7646523,-0.0188919372 8.14725181,0.10803681 8.4331437,0.393324281 Z" id="Path"></path>
            </g>
        </g>
    </g>
</svg>