<?xml version="1.0" encoding="UTF-8"?>
<svg width="96px" height="96px" viewBox="0 0 96 96" version="1.1" xmlns="http://www.w3.org/2000/svg" xmlns:xlink="http://www.w3.org/1999/xlink">
    <title>Spot</title>
    <g id="Page-1" stroke="none" stroke-width="1" fill="none" fill-rule="evenodd">
        <g id="Spot" fill="#A7CF1D" fill-rule="nonzero">
            <path d="M90,42.0000003 L83.3936,42.0000003 C80.8324112,26.9540248 69.0459752,15.1675888 54,12.6064 L54,6.00000025 C54,2.6862916 51.3137084,2.52881094e-07 48,2.52881094e-07 C44.6862916,2.52881094e-07 42,2.6862916 42,6.00000025 L42,12.6064 C26.9540248,15.1675888 15.1675888,26.9540248 12.6064,42.0000003 L6,42.0000003 C2.6862915,42.0000003 0,44.6862915 0,48.0000003 C0,51.3137085 2.6862915,54.0000003 6,54.0000003 L12.6064,54.0000003 C15.1675888,69.0459752 26.9540248,80.8324112 42,83.3936 L42,90.0000003 C42,93.3137084 44.6862916,96.0000003 48,96.0000003 C51.3137084,96.0000003 54,93.3137084 54,90.0000003 L54,83.3936 C69.0459752,80.8324112 80.8324112,69.0459752 83.3936,54.0000003 L90,54.0000003 C93.3137085,54.0000003 96,51.3137085 96,48.0000003 C96,44.6862915 93.3137085,42.0000003 90,42.0000003 Z M48,72 C34.745166,72 24,61.254834 24,48 C24,34.745166 34.745166,24 48,24 C61.254834,24 72,34.745166 72,48 C71.9868805,61.2493959 61.2493959,71.9868805 48,72 L48,72 Z" id="Shape"></path>
            <path d="M48,36 C41.372583,36 36,41.372583 36,48 C36,54.627417 41.372583,60 48,60 C54.627417,60 60,54.627417 60,48 C59.9913508,41.3761689 54.6238311,36.0086492 48,36 L48,36 Z" id="Path"></path>
        </g>
    </g>
</svg>