<?xml version="1.0" encoding="UTF-8"?>
<svg width="54px" height="42px" viewBox="0 0 54 42" version="1.1" xmlns="http://www.w3.org/2000/svg" xmlns:xlink="http://www.w3.org/1999/xlink">
    <title>Group 3</title>
    <g id="Page-1" stroke="none" stroke-width="1" fill="none" fill-rule="evenodd">
        <g id="Group-3" fill="#A7CF1D">
            <g id="iconfinder_Graphic_Design_selection_tool_select_area_6602487" transform="translate(0.000000, 0.000000)" fill-rule="nonzero">
                <path d="M51.5454545,30.5454545 C52.5245048,30.5454545 53.3314228,31.2824404 53.4417016,32.2319051 L53.4545455,32.4545455 L53.4545455,40.0909091 C53.4545455,41.0699593 52.7175596,41.8768773 51.7680949,41.9871561 L51.5454545,42 L43.9090909,42 C42.8547291,42 42,41.1452709 42,40.0909091 C42,39.1118589 42.7369858,38.3049409 43.6864506,38.194662 L43.9090909,38.1818182 L49.6363636,38.1818182 L49.6363636,32.4545455 C49.6363636,31.4754952 50.3733495,30.6685772 51.3228142,30.5582984 L51.5454545,30.5454545 Z" id="Path"></path>
                <path d="M32.4545455,38.1818182 L21,38.1818182 C19.9456382,38.1818182 19.0909091,39.0365473 19.0909091,40.0909091 C19.0909091,41.1452709 19.9456382,42 21,42 L32.4545455,42 C33.5089072,42 34.3636364,41.1452709 34.3636364,40.0909091 C34.3636364,39.0365473 33.5089072,38.1818182 32.4545455,38.1818182 Z" id="Path"></path>
                <path d="M1.90909091,30.5454545 C2.88814115,30.5454545 3.69505912,31.2824404 3.80533797,32.2319051 L3.81818182,32.4545455 L3.81818182,38.1818182 L9.54545455,38.1818182 C10.5245048,38.1818182 11.3314228,38.918804 11.4417016,39.8682688 L11.4545455,40.0909091 C11.4545455,41.0699593 10.7175596,41.8768773 9.76809488,41.9871561 L9.54545455,42 L1.90909091,42 C0.930040671,42 0.123122693,41.2630142 0.0128438507,40.3135494 L0,40.0909091 L0,32.4545455 C0,31.4001837 0.854729114,30.5454545 1.90909091,30.5454545 Z" id="Path"></path>
                <path d="M3.81818182,24.8181818 L3.81818182,17.1818182 C3.81818182,16.1274564 2.9634527,15.2727273 1.90909091,15.2727273 C0.854729114,15.2727273 0,16.1274564 0,17.1818182 L0,24.8181818 C0,25.8725436 0.854729114,26.7272727 1.90909091,26.7272727 C2.9634527,26.7272727 3.81818182,25.8725436 3.81818182,24.8181818 Z" id="Path"></path>
                <path d="M9.54545455,0 C10.5998163,0 11.4545455,0.854729114 11.4545455,1.90909091 C11.4545455,2.88814115 10.7175596,3.69505912 9.76809488,3.80533797 L9.54545455,3.81818182 L3.81818182,3.81818182 L3.81818182,9.54545455 C3.81818182,10.5245048 3.081196,11.3314228 2.13173124,11.4417016 L1.90909091,11.4545455 C0.930040671,11.4545455 0.123122693,10.7175596 0.0128438507,9.76809488 L0,9.54545455 L0,1.90909091 C0,0.930040671 0.736985818,0.123122693 1.68645058,0.0128438507 L1.90909091,0 L9.54545455,0 Z" id="Path"></path>
                <path d="M21,3.81818182 L32.4545455,3.81818182 C33.5089072,3.81818182 34.3636364,2.9634527 34.3636364,1.90909091 C34.3636364,0.854729114 33.5089072,0 32.4545455,0 L21,0 C19.9456382,0 19.0909091,0.854729114 19.0909091,1.90909091 C19.0909091,2.9634527 19.9456382,3.81818182 21,3.81818182 Z" id="Path"></path>
                <path d="M51.5454545,0 C52.5245048,0 53.3314228,0.736985818 53.4417016,1.68645058 L53.4545455,1.90909091 L53.4545455,9.54545455 C53.4545455,10.5998163 52.5998163,11.4545455 51.5454545,11.4545455 C50.5664043,11.4545455 49.7594863,10.7175596 49.6492075,9.76809488 L49.6363636,9.54545455 L49.6363636,3.81818182 L43.9090909,3.81818182 C42.9300407,3.81818182 42.1231227,3.081196 42.0128439,2.13173124 L42,1.90909091 C42,0.930040671 42.7369858,0.123122693 43.6864506,0.0128438507 L43.9090909,0 L51.5454545,0 Z" id="Path"></path>
                <path d="M49.6363636,17.1818182 L49.6363636,24.8181818 C49.6363636,25.8725436 50.4910928,26.7272727 51.5454545,26.7272727 C52.5998163,26.7272727 53.4545455,25.8725436 53.4545455,24.8181818 L53.4545455,17.1818182 C53.4545455,16.1274564 52.5998163,15.2727273 51.5454545,15.2727273 C50.4910928,15.2727273 49.6363636,16.1274564 49.6363636,17.1818182 Z" id="Path"></path>
            </g>
            <rect id="Rectangle" x="11" y="10" width="31" height="22" rx="3"></rect>
        </g>
    </g>
</svg>