<?xml version="1.0" encoding="UTF-8"?>
<svg width="17px" height="24px" viewBox="0 0 17 24" version="1.1" xmlns="http://www.w3.org/2000/svg" xmlns:xlink="http://www.w3.org/1999/xlink">
    <title>W Flag</title>
    <g id="Page-1" stroke="none" stroke-width="1" fill="none" fill-rule="evenodd">
        <g id="W-Flag" fill="#FFFFFF" fill-rule="nonzero">
            <path d="M0,16 L0,9 L0,2 L14.7387,2 C16.0202,2 16.7116,3.50318 15.8776,4.47619 L12,9 L15.8776,13.5238 C16.7116,14.4968 16.0202,16 14.7387,16 L0,16 Z" id="Path"></path>
            <path d="M0,1 C0,0.447716 0.44772,0 1,0 L1,0 C1.55228,0 2,0.447715 2,1 L2,23 C2,23.5523 1.55228,24 1,24 L1,24 C0.44772,24 0,23.5523 0,23 L0,1 Z" id="Path"></path>
        </g>
    </g>
</svg>