<?xml version="1.0" encoding="UTF-8"?>
<svg width="26px" height="17px" viewBox="0 0 26 17" version="1.1" xmlns="http://www.w3.org/2000/svg" xmlns:xlink="http://www.w3.org/1999/xlink">
    <title>5fc708b5eca5b292a1e0442d_iconfinder-icon (20)</title>
    <g id="Page-1" stroke="none" stroke-width="1" fill="none" fill-rule="evenodd">
        <g id="5fc708b5eca5b292a1e0442d_iconfinder-icon-(20)" fill="#FFFFFF" fill-rule="nonzero">
            <g id="Layer-1">
                <path d="M14,1 L3,1 C1.3,1 0,2.3 0,4 L0,14 C0,15.7 1.3,17 3,17 L14,17 C15.7,17 17,15.7 17,14 L17,4 C17,2.3 15.7,1 14,1 Z" id="svg_2"></path>
                <path d="M25.5,1.1 C25.2,0.9 24.8,0.9 24.5,1.1 L19.5,4.1 C19.2,4.3 19,4.6 19,5 L19,13 C19,13.4 19.2,13.7 19.5,13.9 L24.5,16.9 C24.6,17 24.8,17 25,17 C25.2,17 25.3,17 25.5,16.9 C25.8,16.7 26,16.4 26,16 L26,2 C26,1.6 25.8,1.3 25.5,1.1 Z" id="svg_3"></path>
            </g>
        </g>
    </g>
</svg>