<?xml version="1.0" encoding="UTF-8"?>
<svg width="22px" height="18px" viewBox="0 0 22 18" version="1.1" xmlns="http://www.w3.org/2000/svg" xmlns:xlink="http://www.w3.org/1999/xlink">
    <title>5fc708b5b7aa9abb14f354fb_iconfinder-icon (19)</title>
    <g id="Page-1" stroke="none" stroke-width="1" fill="none" fill-rule="evenodd">
        <g id="5fc708b5b7aa9abb14f354fb_iconfinder-icon-(19)" fill="#FFFFFF" fill-rule="nonzero">
            <g id="Layer-1">
                <path d="M18,4 L17.6,4 C17.2,4 16.9,3.8 16.7,3.4 L15.5,1.1 C15.2,0.4 14.5,4.4408921e-16 13.7,4.4408921e-16 L8.2,4.4408921e-16 C7.5,4.4408921e-16 6.8,0.4 6.4,1.1 L5.3,3.4 C5.1,3.8 4.8,4 4.4,4 L4,4 C1.8,4 1.77635684e-15,5.8 1.77635684e-15,8 L1.77635684e-15,14 C1.77635684e-15,16.2 1.8,18 4,18 L18,18 C20.2,18 22,16.2 22,14 L22,8 C22,5.8 20.2,4 18,4 Z M11,14 C8.8,14 7,12.2 7,10 C7,7.8 8.8,6 11,6 C13.2,6 15,7.8 15,10 C15,12.2 13.2,14 11,14 Z" id="photo"></path>
            </g>
        </g>
    </g>
</svg>